<svg xmlns="http://www.w3.org/2000/svg" fill-rule="evenodd" stroke-linejoin="round" stroke-miterlimit="2" clip-rule="evenodd" viewBox="0 0 64 64"><rect width="64" height="64" fill="none"/><circle cx="32" cy="32" r="26" fill="#3fc1c9"/><path fill="#eaeaea" d="M256,107.667L276,107.667C276.92,107.667 277.667,106.92 277.667,106C277.667,105.08 276.92,104.333 276,104.333L256,104.333C255.08,104.333 254.333,105.08 254.333,106C254.333,106.92 255.08,107.667 256,107.667Z" transform="matrix(1.2 0 0 1.2 -287.2 -95.2)"/><path fill="#eaeaea" d="M256,107.667L276,107.667C276.92,107.667 277.667,106.92 277.667,106C277.667,105.08 276.92,104.333 276,104.333L256,104.333C255.08,104.333 254.333,105.08 254.333,106C254.333,106.92 255.08,107.667 256,107.667Z" transform="rotate(90 223.2 -64) scale(1.2)"/></svg>