<svg xmlns:xlink="http://www.w3.org/1999/xlink" xmlns="http://www.w3.org/2000/svg" fill="currentColor" viewBox="0 0 24 24"   class="x1lliihq x1k90msu x2h7rmj x1qfuztq x5e5rjt x1fgtraw xgd8bvy" width="28"  height="28" ><g fill-rule="evenodd" transform="translate(-444 -156)" fill="#1B74E4"><path d="M462.75 168a1.25 1.25 0 1 1 0-2.5 1.25 1.25 0 0 1 0 2.5m-3 3a1.25 1.25 0 1 1 0-2.5 1.25 1.25 0 0 1 0 2.5m-7-2h-1.25v1.25a.75.75 0 0 1-1.5 0V169h-1.25a.75.75 0 0 1 0-1.5H450v-1.25a.75.75 0 0 1 1.5 0v1.25h1.25a.75.75 0 0 1 0 1.5m8.25-8h-10c-3.86 0-7 3.14-7 7s3.14 7 7 7h10c3.86 0 7-3.14 7-7s-3.14-7-7-7" fill="#1B74E4"></path></g></svg>